<svg id="Layer_1" data-name="Layer 1" xmlns="http://www.w3.org/2000/svg" viewBox="0 0 179.19 168.37"><defs><style>.cls-1{fill:#5672b7;}</style></defs><title>nasolabial-sulcus</title><rect class="cls-1" x="36.88" y="75.85" width="0.51" height="42.86" transform="translate(-60.14 134.42) rotate(-90)"/><rect class="cls-1" x="32.54" y="85.58" width="0.51" height="42.86" transform="translate(-74.21 139.8) rotate(-90)"/><path class="cls-1" d="M55.24,154.59c-6.54-1.13-7.42-3-10-9.71A32,32,0,0,1,44,139.45c-.53-2.7.74-4.82,2.15-7,2-3.09,1.66-5.52-1-8.19-.6-.62-1.28-1.17-1.91-1.76-2.2-2.08-2.49-3.22-1-5.78a2.41,2.41,0,0,0-.22-3.12,7,7,0,0,1-.74-7.55c.42-.92.74-1.88,1.1-2.83,1.66-4.27,1.06-6-3-8.23a30,30,0,0,0-5-2c-2.5-.82-5.13-5.29-4.72-8.79a11.76,11.76,0,0,1,1.67-5C37.22,70.54,43,61.8,49.26,53.49c3.21-4.23,3.21-8.34,2.17-13-.7-3.11-1.22-6.26-1.72-9.41-.54-3.36.65-6.47,1.63-9.6A116.11,116.11,0,0,1,55.69,9a6.11,6.11,0,0,1,0,1.6,132.69,132.69,0,0,1-3.86,12.74c-1.82,4.54-1.1,8.89-.18,13.35.58,2.83,1.2,5.65,1.68,8.5A9.17,9.17,0,0,1,50.65,53c-7.28,8-12,17.66-18.31,26.27a8.29,8.29,0,0,0-.94,9.09,6.72,6.72,0,0,0,4.06,3.86,30.17,30.17,0,0,1,7.48,4.33c1.8,1.34,1.49,3.56.93,5.48s-1.5,4.06-2.37,6.35c6.74-.35,11.28,4.57,17.11,6.11-5.92-.58-10.44-5.66-16.68-5.36-.41,3.44,1.57,5.64,4.54,5.82,3.44.21,6.86.77,10.28,1.17l-.12,1c-2.06-.34-4.12-.74-6.19-1-1.77-.24-3.57-.38-5.36-.48-2.11-.11-2.07,1.91-2.7,3.09-.29.53.22,1.77.73,2.39,1.23,1.51,2.83,2.72,4,4.27,1.79,2.38,2,5.2,0,7.4-2.83,3.11-2.36,6.49-1.54,9.94a33.54,33.54,0,0,0,2.19,5.93,7.58,7.58,0,0,0,5.49,4.72c.7.15,1.28.85,1.92,1.3Z"/><path class="cls-1" d="M86.16,51.51A77.68,77.68,0,0,0,67.81,44.8l-.44.65a11.81,11.81,0,0,0,2.45,1.79c3.25,1.31,6.62,2.34,9.84,3.72a18.83,18.83,0,0,1,5,3.47c-6.31.71-12.54,2-19-.74,2.53-3,2.39-6.29.81-9.83C73.76,45.11,80.33,47.34,86.16,51.51ZM73,54.86l9.6-.86.12-.63L74.3,49.42Zm-1.89-.58c2.06-.87,2-2.71,1.9-4.35,0-.52-1-1-1.9-1.91Zm-1.24-6.34c-1.69,1.71-1.25,3.52,1,5Z"/><path class="cls-1" d="M75.66,35.32a47.41,47.41,0,0,1,14.51,7.61l-.33.6A15.78,15.78,0,0,1,88,42.44c-4.27-3.37-9.26-4.88-14.52-5.67-4.17-.62-8.34-1.16-12.48-1.92-.85-.15-1.56-1.09-2.34-1.66.79-.48,1.6-1.41,2.36-1.37a56.47,56.47,0,0,1,9,1.1c2,.45,3.82,1.63,5.72,2.48-2.77-.73-5.5-1.64-8.31-2.13-2.37-.42-4.85-1.25-7.25-.19l-.06.68,15.65,2.52Z"/><path class="cls-1" d="M55.19,154.65c3.4.12,6.81.29,10.21.34,5.1.08,10.19.15,15.29.06s10.45-.53,15.68-.55c3.3,0,6.61.47,9.92.72v.65c-2.25,0-4.51.08-6.76,0-4-.17-8.09-.67-12.13-.63-8.7.08-17.39.5-26.09.58-2,0-4-.8-6-1.23Z"/><path class="cls-1" d="M131.77,66.46c5.85,3.64,7.41,10,2.5,14.67-1.42,1.34-2.84,1.7-4.27.09-1-1.13-1.92-.92-3.1-.21-1.83,1.09-3.16.29-3.36-1.85a6.5,6.5,0,0,1,0-1.65c.51-3,1.07-6.08,1.63-9.25,1.92,4-1.33,8-.38,12.27a7,7,0,0,0,1.9-.59c1.53-1.07,2.77-.78,3.91.59.91,1.1,1.84.88,2.86.08a7.32,7.32,0,0,0,1.84-9.26C134.39,69.75,133.14,68.33,131.77,66.46Z"/><path class="cls-1" d="M36.26,90c1.77-1.79,3.59-1.43,5.35-.63,3.49,1.58,6.93,3.25,10.4,4.88,1.84.87,3.72,1,5.31-.38A7,7,0,0,0,59,91.13a23.18,23.18,0,0,0,.78-3.39c1.21,2.62.2,4.34-.93,6a4.73,4.73,0,0,1-6.1,1.67c-3.44-1.7-7.11-1.53-10.64-2.35C39.9,92.57,37.72,92,36.26,90Zm1.83-.21-.31,1,8.06,2.36.22-.7C43.49,91.29,41.17,89.39,38.09,89.76Z"/><path class="cls-1" d="M116.88,93.93c.15.63.35,1.25.45,1.89.71,4.87,4.33,6.44,9,6.12,4.3-.31,6.38-3.64,8.68-6.6,1.15-1.49,2.14-3.11,3.21-4.66l3.44-5c0,.74.21,1.17.07,1.37-3.09,4.25-6.08,8.59-9.38,12.67s-9,4-13,1.43c-2.65-1.71-2.85-4.43-3.16-7.09Z"/><path class="cls-1" d="M136.78,61.28c-.37-1.06-.8-2.11-1.07-3.2a6.09,6.09,0,0,1,.08-1.69c.57.12,1.32.06,1.67.4,1.11,1.11,2.06,2.38,3.08,3.58l-.58.49L137,57.3l-.37.14c.23,1.2.53,2.39.66,3.6.06.47-.14,1.33-.42,1.42a2.35,2.35,0,0,1-1.68-.27c-1.12-.66-2.17-1.46-3.24-2.2l.36-.56,3.83,2.22Z"/><path class="cls-1" d="M46.91,105.05l-1.72-8.54C47.32,99,47.56,102,46.91,105.05Z"/><path class="cls-1" d="M45.45,120.45l8.65-1.33.13.68-8.63,1.47Z"/><path class="cls-1" d="M116.15,92.72q.87-3,1.75-6l.87.23c-.6,2-1.19,4-1.79,6Z"/></svg>